<?xml version="1.0" encoding="UTF-8" standalone="no"?>
<!DOCTYPE svg PUBLIC "-//W3C//DTD SVG 1.1//EN" "http://www.w3.org/Graphics/SVG/1.1/DTD/svg11.dtd">
<svg width="100%" height="100%" viewBox="0 0 2224 395" version="1.1" xmlns="http://www.w3.org/2000/svg" xmlns:xlink="http://www.w3.org/1999/xlink" xml:space="preserve" xmlns:serif="http://www.serif.com/" style="fill-rule:evenodd;clip-rule:evenodd;stroke-linejoin:round;stroke-miterlimit:2;">
    <g transform="matrix(1,0,0,1,-388,-1677)">
        <g transform="matrix(1,0,0,1,0,1387)">
            <g transform="matrix(1,0,0,1,0,-1013)">
                <path d="M1947,1619C1956.501,1619.07 1975,1628 1975,1658C1975,1689 1956.5,1697.167 1947,1697C1937.5,1696.833 1918,1691 1918,1657C1918,1644 1924.5,1618.833 1947,1619ZM1946.5,1633C1942,1633 1933,1635.501 1933,1658.001C1933,1680.501 1942,1684 1946.5,1684C1951,1684 1960,1680.501 1960,1658.001C1960,1635.501 1951,1633 1946.5,1633Z" style="fill:white;"/>
            </g>
            <g transform="matrix(1,0,0,1,560,-1013)">
                <path d="M1947,1619C1956.501,1619.07 1975,1628 1975,1658C1975,1689 1956.5,1697.167 1947,1697C1937.5,1696.833 1918,1691 1918,1657C1918,1644 1924.5,1618.833 1947,1619ZM1946.5,1633C1942,1633 1933,1635.501 1933,1658.001C1933,1680.501 1942,1684 1946.5,1684C1951,1684 1960,1680.501 1960,1658.001C1960,1635.501 1951,1633 1946.5,1633Z" style="fill:white;"/>
            </g>
            <g transform="matrix(1,0,0,1,0,-1013)">
                <path d="M2038,1621L2053,1621L2053,1672C2053,1678.365 2050.471,1684.47 2045.971,1688.971C2041.47,1693.471 2035.365,1696 2029,1696L2025.013,1696C2018.379,1696 2012.017,1693.365 2007.326,1688.674C2002.635,1683.983 2000,1677.621 2000,1670.987L2000,1621L2015,1621L2015,1671C2015,1671 2015.704,1683 2026.5,1683C2037.296,1683 2038,1671 2038,1671L2038,1621Z" style="fill:white;"/>
            </g>
            <g transform="matrix(1,0,0,1,0,-1013)">
                <path d="M2161,1696L2161,1621L2184,1621C2184,1621 2215,1620.751 2215,1658.051C2215,1695.35 2185.121,1696 2183,1696L2161,1696ZM2176,1633L2176,1683C2176,1683 2200,1686.992 2200,1658.5C2200,1630.008 2176,1633 2176,1633Z" style="fill:white;"/>
            </g>
            <g transform="matrix(1,0,0,1,0,-1013)">
                <path d="M2081,1696L2081,1621L2096,1621L2118,1666L2118,1621L2132,1621L2132,1696L2118,1696L2095,1648L2095,1696L2081,1696Z" style="fill:white;"/>
            </g>
            <g transform="matrix(1,0,0,1,480,-1013)">
                <path d="M2081,1696L2081,1621L2096,1621L2118,1666L2118,1621L2132,1621L2132,1696L2118,1696L2095,1648L2095,1696L2081,1696Z" style="fill:white;"/>
            </g>
            <g transform="matrix(1,0,0,1,0,-1013)">
                <path d="M2236,1696L2257,1620L2276,1620L2297,1696L2281,1696L2277,1680L2256,1680L2252,1696L2236,1696ZM2266.5,1639L2259,1667L2274,1667L2266.5,1639Z" style="fill:white;"/>
            </g>
            <g transform="matrix(1,0,0,1,0,-1013)">
                <path d="M2400,1621L2453,1621L2453,1633L2434,1633L2434,1683L2453,1683L2453,1696L2400,1696L2400,1683L2419,1683L2419,1633L2400,1633L2400,1621Z" style="fill:white;"/>
            </g>
            <g transform="matrix(1,0,0,1,0,-1013)">
                <path d="M1843,1621L1843,1696L1858,1696L1858,1666L1888,1666L1888,1653L1858,1653L1858,1633L1894,1633L1894,1621L1843,1621Z" style="fill:white;"/>
            </g>
            <g transform="matrix(1,0,0,1,0,-1013)">
                <path d="M1531,1444L1531,1501.12C1531,1520.923 1514.923,1537 1495.12,1537L1474.88,1537C1455.077,1537 1439,1520.923 1439,1501.12L1439,1338.88C1439,1319.077 1455.077,1303 1474.88,1303L1495.12,1303C1514.923,1303 1531,1319.077 1531,1338.88L1531,1394L1497,1394L1497,1340.84C1497,1338.721 1495.279,1337 1493.16,1337L1476.84,1337C1474.721,1337 1473,1338.721 1473,1340.84L1473,1500.16C1473,1502.279 1474.721,1504 1476.84,1504L1493.16,1504C1495.279,1504 1497,1502.279 1497,1500.16L1497,1444L1531,1444Z" style="fill:white;"/>
            </g>
            <g transform="matrix(1,0,0,1,266,-1013)">
                <path d="M1531,1444L1531,1501.12C1531,1520.923 1514.923,1537 1495.12,1537L1474.88,1537C1455.077,1537 1439,1520.923 1439,1501.12L1439,1338.88C1439,1319.077 1455.077,1303 1474.88,1303L1495.12,1303C1514.923,1303 1531,1319.077 1531,1338.88L1531,1394L1497,1394L1497,1340.84C1497,1338.721 1495.279,1337 1493.16,1337L1476.84,1337C1474.721,1337 1473,1338.721 1473,1340.84L1473,1500.16C1473,1502.279 1474.721,1504 1476.84,1504L1493.16,1504C1495.279,1504 1497,1502.279 1497,1500.16L1497,1444L1531,1444Z" style="fill:white;"/>
            </g>
            <g transform="matrix(1,0,0,1,728,-1013)">
                <path d="M1531,1444L1531,1501.12C1531,1520.923 1514.923,1537 1495.12,1537L1474.88,1537C1455.077,1537 1439,1520.923 1439,1501.12L1439,1338.88C1439,1319.077 1455.077,1303 1474.88,1303L1495.12,1303C1514.923,1303 1531,1319.077 1531,1338.88L1531,1394L1497,1394L1497,1340.84C1497,1338.721 1495.279,1337 1493.16,1337L1476.84,1337C1474.721,1337 1473,1338.721 1473,1340.84L1473,1500.16C1473,1502.279 1474.721,1504 1476.84,1504L1493.16,1504C1495.279,1504 1497,1502.279 1497,1500.16L1497,1444L1531,1444Z" style="fill:white;"/>
            </g>
            <g transform="matrix(1,0,0,1,0,-1013)">
                <path d="M2283,1305L2317,1305L2317,1400L2353,1400L2353,1305L2387,1305L2387,1536L2353,1536L2353,1434L2317,1434L2317,1536L2283,1536L2283,1305Z" style="fill:white;"/>
            </g>
            <g transform="matrix(1,0,0,1,0,-1013)">
                <path d="M1995,1305L2029,1305L2029,1504.633C2029,1521.956 2014.956,1536 1997.633,1536L1970.461,1536C1961.587,1536 1953.076,1532.475 1946.801,1526.199C1940.525,1519.924 1937,1511.413 1937,1502.539L1937,1305L1971,1305L1971,1503L1995,1503L1995,1305Z" style="fill:white;"/>
            </g>
            <g transform="matrix(1,0,0,1,0,-1013)">
                <path d="M990,1305L1074,1305L1074,1339L1025,1339L1025,1400L1071,1400L1071,1434L1025,1434L1025,1502L1074,1502L1074,1536L990,1536L990,1305Z" style="fill:white;"/>
            </g>
            <g transform="matrix(1,0,0,1,221,-1013)">
                <path d="M990,1305L1074,1305L1074,1339L1025,1339L1025,1400L1071,1400L1071,1434L1025,1434L1025,1502L1074,1502L1074,1536L990,1536L990,1305Z" style="fill:white;"/>
            </g>
            <g transform="matrix(1,0,0,1,565,-1013)">
                <path d="M990,1305L1074,1305L1074,1339L1025,1339L1025,1400L1071,1400L1071,1434L1025,1434L1025,1502L1074,1502L1074,1536L990,1536L990,1305Z" style="fill:white;"/>
            </g>
            <g transform="matrix(1,0,0,1,1421,-1013)">
                <path d="M990,1305L1074,1305L1074,1339L1025,1339L1025,1400L1071,1400L1071,1434L1025,1434L1025,1502L1074,1502L1074,1536L990,1536L990,1305Z" style="fill:white;"/>
            </g>
            <g transform="matrix(1,0,0,1,0,-1013)">
                <path d="M870,1305L973,1305L973,1339L939,1339L939,1536L904,1536L904,1339L870,1339L870,1305Z" style="fill:white;"/>
            </g>
            <g transform="matrix(1,0,0,1,1177,-1013)">
                <path d="M870,1305L973,1305L973,1339L939,1339L939,1536L904,1536L904,1339L870,1339L870,1305Z" style="fill:white;"/>
            </g>
            <g transform="matrix(1,0,0,1,-0,-1013.5)">
                <path d="M683,1508L735.18,1508C774.819,1508 807,1540.181 807,1579.82L807,1625.18C807,1664.819 774.819,1697 735.18,1697L459.82,1697C420.181,1697 388,1664.819 388,1625.18L388,1579.82C388,1540.181 420.181,1508 459.82,1508L512,1508L512,1578L466.16,1578C461.656,1578 458,1581.656 458,1586.16L458,1617.84C458,1622.344 461.656,1626 466.16,1626L728.84,1626C733.344,1626 737,1622.344 737,1617.84L737,1586.16C737,1581.656 733.344,1578 728.84,1578L683,1578L683,1508Z" style="fill:white;"/>
            </g>
            <g transform="matrix(1,0,0,1,0,-1013)">
                <path d="M491,1305L704,1305L704,1376L633,1376L633,1580L562,1580L562,1376L491,1376L491,1305Z" style="fill:white;"/>
            </g>
            <g transform="matrix(1,0,0,1,0,-1013)">
                <path d="M1349,1536L1349,1411L1378,1536L1415,1536L1415,1305L1381,1305L1381,1430L1353,1305L1315,1305L1315,1536L1349,1536Z" style="fill:white;"/>
            </g>
            <g transform="matrix(1,0,0,1,0,-1013)">
                <path d="M1095,1536L1095,1305L1151.024,1305C1170.893,1305 1187,1321.107 1187,1340.976C1187,1340.976 1187,1416.039 1187,1416.059C1186.982,1434.114 1170,1442.5 1170,1442.5L1192,1536L1154,1536L1139,1448L1129,1448L1129,1536L1095,1536ZM1148.8,1339L1129,1339L1129,1414L1148.775,1414C1151.108,1414 1153,1412.108 1153,1409.775L1153,1343.2C1153,1340.88 1151.12,1339 1148.8,1339Z" style="fill:white;"/>
            </g>
            <g transform="matrix(1,0,0,1,726,-1013)">
                <path d="M1095,1536L1095,1305L1151.024,1305C1170.893,1305 1187,1321.107 1187,1340.976C1187,1340.976 1187,1416.039 1187,1416.059C1186.982,1434.114 1170,1442.5 1170,1442.5L1192,1536L1154,1536L1139,1448L1129,1448L1129,1536L1095,1536ZM1148.8,1339L1129,1339L1129,1414L1148.775,1414C1151.108,1414 1153,1412.108 1153,1409.775L1153,1343.2C1153,1340.88 1151.12,1339 1148.8,1339Z" style="fill:white;"/>
            </g>
            <g transform="matrix(1,0,0,1,1420,-1013)">
                <path d="M1095,1536L1095,1305L1151.024,1305C1170.893,1305 1187,1321.107 1187,1340.976C1187,1340.976 1187,1416.039 1187,1416.059C1186.982,1434.114 1170,1442.5 1170,1442.5L1192,1536L1154,1536L1139,1448L1129,1448L1129,1536L1095,1536ZM1148.8,1339L1129,1339L1129,1414L1148.775,1414C1151.108,1414 1153,1412.108 1153,1409.775L1153,1343.2C1153,1340.88 1151.12,1339 1148.8,1339Z" style="fill:white;"/>
            </g>
            <g transform="matrix(1,0,0,1,0,-1013)">
                <path d="M2318,1621L2318,1633L2339,1633L2339,1696L2354,1696L2354,1633L2375,1633L2375,1621L2318,1621Z" style="fill:white;"/>
            </g>
        </g>
    </g>
</svg>
